<svg width="180" height="68" viewBox="0 0 180 68" fill="none" xmlns="http://www.w3.org/2000/svg">
<path d="M47.8439 63.5761C47.6601 58.7409 46.1836 56.0841 45.3506 54.9084C45.0691 54.5108 45.0117 53.9921 45.2013 53.5426C46.0687 51.5255 46.5513 49.3067 46.5513 46.9727C46.4077 42.4544 44.1212 38.0226 39.9217 36.6279C37.6754 35.8787 34.6823 35.7923 32.4015 37.6595C32.1602 37.8554 31.8557 37.9477 31.5513 37.8843C30.184 37.5903 26.3061 36.9276 25.611 38.5816C25.1801 39.6074 26.151 40.4719 27.3804 41.175C28.3571 41.734 29.035 41.9876 30.1093 42.5063C31.8328 43.2209 33.0449 44.921 33.0449 46.9093C33.0449 47.9005 32.7405 48.8226 32.2234 49.5891C31.3674 50.8512 29.9254 51.6753 28.2939 51.6753C28.0411 51.6753 27.7998 51.6523 27.5585 51.6119C27.1104 51.5428 26.6853 51.4102 26.2946 51.2258C25.7029 50.9838 25.2203 50.7187 24.979 50.5631C19.3547 46.9611 17.591 39.4864 21.0552 33.706C21.5838 32.8243 22.2042 32.0405 22.8936 31.3431C24.7722 29.4471 27.1851 28.2426 29.7359 27.8334C31.5168 29.4125 33.8492 30.3807 36.4172 30.3807C36.8079 30.3807 37.1871 30.3519 37.5662 30.3116C39.8068 30.058 41.8232 29.0667 43.3744 27.5856C44.8738 26.1564 46.8903 25.2746 49.1193 25.2746C51.222 25.2746 53.135 26.0584 54.6 27.3436C51.7275 19.84 43.7363 15.3679 35.6761 17.1602C32.9703 17.7595 30.5746 18.9986 28.5984 20.6814C29.1441 16.1747 28.0181 11.2876 24.6171 6.82119C22.2387 3.72065 18.7917 1.59407 14.9656 0.833341C9.09425 -0.330804 3.90657 1.07539 0 3.96846C1.84987 3.86473 3.75145 4.27391 5.48643 5.25363C7.82462 6.57914 9.42172 8.70572 10.1456 11.0916C10.8982 13.564 12.4263 15.8001 14.6266 17.3965C14.9943 17.6673 15.3792 17.9209 15.7871 18.1514C18.4758 19.6729 21.4459 19.9899 24.2494 19.3963C25.025 23.3613 18.8434 31.055 18.2345 31.9483C15.2586 36.2764 13.3225 41.3306 13.4604 46.9784C13.4604 56.1475 20.8714 63.5761 30.0059 63.5761C34.125 63.5761 37.8879 62.0662 40.7834 59.565C41.2889 59.127 42.0128 59.0579 42.5931 59.3921C43.7076 60.0318 45.6149 61.3112 47.8439 63.5761Z" fill="#2C4093"/>
<path d="M61.0904 23.7942C61.0904 22.9102 61.3071 22.2428 61.7404 21.7922C62.1737 21.3415 62.8584 21.1162 63.7944 21.1162H68.5004C69.9737 21.1162 71.2651 21.3502 72.3744 21.8182C73.4837 22.2862 74.4024 22.9362 75.1304 23.7682C75.8757 24.5828 76.4304 25.5535 76.7944 26.6802C77.1584 27.8068 77.3404 29.0288 77.3404 30.3462C77.3404 31.6462 77.1497 32.8595 76.7684 33.9862C76.3871 35.1128 75.8151 36.0922 75.0524 36.9242C74.3071 37.7562 73.3797 38.4062 72.2704 38.8742C71.1784 39.3422 69.9131 39.5762 68.4744 39.5762H63.7944C62.8584 39.5762 62.1737 39.3508 61.7404 38.9002C61.3071 38.4495 61.0904 37.7822 61.0904 36.8982V23.7942ZM64.1064 36.9762H68.4744C69.4277 36.9762 70.2684 36.8202 70.9964 36.5082C71.7417 36.1788 72.3571 35.7195 72.8424 35.1302C73.3277 34.5408 73.6917 33.8475 73.9344 33.0502C74.1944 32.2355 74.3244 31.3342 74.3244 30.3462C74.3244 29.3582 74.1944 28.4568 73.9344 27.6422C73.6917 26.8275 73.3191 26.1342 72.8164 25.5622C72.3311 24.9728 71.7157 24.5222 70.9704 24.2102C70.2424 23.8808 69.4017 23.7162 68.4484 23.7162H64.1064V36.9762ZM79.5595 33.1542C79.5595 32.2182 79.7242 31.3342 80.0535 30.5022C80.3829 29.6528 80.8509 28.9162 81.4575 28.2922C82.0642 27.6508 82.8009 27.1395 83.6675 26.7582C84.5342 26.3768 85.5049 26.1862 86.5795 26.1862C87.6369 26.1862 88.5989 26.3768 89.4655 26.7582C90.3322 27.1222 91.0689 27.6162 91.6755 28.2402C92.2822 28.8642 92.7502 29.5922 93.0795 30.4242C93.4089 31.2388 93.5735 32.0968 93.5735 32.9982V38.4842C93.5735 38.8828 93.4435 39.2122 93.1835 39.4722C92.9409 39.7148 92.5855 39.8362 92.1175 39.8362C91.6495 39.8362 91.2942 39.7148 91.0515 39.4722C90.8262 39.2122 90.7135 38.8828 90.7135 38.4842V37.9382C90.3495 38.5102 89.7949 39.0128 89.0495 39.4462C88.3042 39.8795 87.3595 40.0962 86.2155 40.0962C85.2449 40.0962 84.3522 39.9142 83.5375 39.5502C82.7229 39.1688 82.0209 38.6662 81.4315 38.0422C80.8422 37.4008 80.3829 36.6642 80.0535 35.8322C79.7242 34.9828 79.5595 34.0902 79.5595 33.1542ZM82.4195 33.1542C82.4195 33.7955 82.5149 34.3935 82.7055 34.9482C82.9135 35.4855 83.1909 35.9622 83.5375 36.3782C83.9015 36.7768 84.3349 37.0888 84.8375 37.3142C85.3575 37.5395 85.9295 37.6522 86.5535 37.6522C87.1255 37.6522 87.6629 37.5482 88.1655 37.3402C88.6855 37.1322 89.1275 36.8375 89.4915 36.4562C89.8729 36.0575 90.1762 35.5808 90.4015 35.0262C90.6269 34.4715 90.7395 33.8475 90.7395 33.1542C90.7395 32.4608 90.6269 31.8368 90.4015 31.2822C90.1935 30.7275 89.8989 30.2595 89.5175 29.8782C89.1362 29.4795 88.6942 29.1762 88.1915 28.9682C87.6889 28.7428 87.1515 28.6302 86.5795 28.6302C85.9555 28.6302 85.3835 28.7515 84.8635 28.9942C84.3609 29.2195 83.9275 29.5315 83.5635 29.9302C83.1995 30.3288 82.9135 30.8055 82.7055 31.3602C82.5149 31.9148 82.4195 32.5128 82.4195 33.1542ZM103.367 37.6522C104.199 37.6522 104.884 37.5482 105.421 37.3402C105.958 37.1322 106.444 36.8548 106.877 36.5082C107.189 36.2655 107.501 36.1875 107.813 36.2742C108.125 36.3608 108.376 36.5342 108.567 36.7942C108.758 37.0368 108.844 37.3315 108.827 37.6782C108.827 38.0248 108.662 38.3282 108.333 38.5882C107.761 39.0562 107.05 39.4202 106.201 39.6802C105.352 39.9575 104.407 40.0962 103.367 40.0962C102.292 40.0962 101.313 39.9228 100.429 39.5762C99.545 39.2295 98.7823 38.7528 98.141 38.1462C97.517 37.5222 97.0317 36.7855 96.685 35.9362C96.3383 35.0868 96.165 34.1595 96.165 33.1542C96.165 32.1488 96.347 31.2215 96.711 30.3722C97.075 29.5228 97.569 28.7862 98.193 28.1622C98.817 27.5382 99.5363 27.0528 100.351 26.7062C101.166 26.3595 102.015 26.1862 102.899 26.1862C103.783 26.1862 104.624 26.3422 105.421 26.6542C106.236 26.9488 106.946 27.3822 107.553 27.9542C108.16 28.5088 108.645 29.1848 109.009 29.9822C109.373 30.7622 109.555 31.6462 109.555 32.6342C109.555 33.1368 109.425 33.5442 109.165 33.8562C108.922 34.1508 108.506 34.2982 107.917 34.2982H99.155C99.2417 34.8008 99.4063 35.2602 99.649 35.6762C99.8917 36.0748 100.195 36.4215 100.559 36.7162C100.94 37.0108 101.365 37.2448 101.833 37.4182C102.301 37.5742 102.812 37.6522 103.367 37.6522ZM106.695 31.9582C106.695 31.5942 106.608 31.2215 106.435 30.8402C106.262 30.4415 106.01 30.0775 105.681 29.7482C105.352 29.4188 104.953 29.1502 104.485 28.9422C104.017 28.7342 103.488 28.6302 102.899 28.6302C102.414 28.6302 101.954 28.7168 101.521 28.8902C101.105 29.0635 100.724 29.2975 100.377 29.5922C100.048 29.8868 99.7703 30.2422 99.545 30.6582C99.337 31.0568 99.1983 31.4902 99.129 31.9582H106.695ZM111.501 32.9462C111.501 32.0448 111.666 31.1868 111.995 30.3722C112.324 29.5575 112.792 28.8382 113.399 28.2142C114.006 27.5902 114.742 27.0962 115.609 26.7322C116.476 26.3682 117.446 26.1862 118.521 26.1862C119.578 26.1862 120.54 26.3682 121.407 26.7322C122.274 27.0788 123.01 27.5555 123.617 28.1622C124.241 28.7688 124.718 29.4708 125.047 30.2682C125.376 31.0655 125.541 31.9062 125.541 32.7902V39.0042C125.541 40.0268 125.385 40.9542 125.073 41.7862C124.761 42.6182 124.302 43.3288 123.695 43.9182C123.106 44.5248 122.378 44.9928 121.511 45.3222C120.644 45.6515 119.665 45.8162 118.573 45.8162C117.412 45.8162 116.337 45.6428 115.349 45.2962C114.378 44.9668 113.503 44.3862 112.723 43.5542C112.428 43.2422 112.264 42.9128 112.229 42.5662C112.194 42.2195 112.298 41.8988 112.541 41.6042C112.766 41.3268 113.07 41.1795 113.451 41.1622C113.832 41.1448 114.153 41.2662 114.413 41.5262C115.072 42.1848 115.722 42.6442 116.363 42.9042C117.022 43.1815 117.75 43.3202 118.547 43.3202C119.136 43.3202 119.682 43.2248 120.185 43.0342C120.688 42.8608 121.121 42.5922 121.485 42.2282C121.866 41.8642 122.161 41.4135 122.369 40.8762C122.577 40.3388 122.681 39.7148 122.681 39.0042V37.9382C122.508 38.1462 122.274 38.3542 121.979 38.5622C121.702 38.7528 121.372 38.9348 120.991 39.1082C120.61 39.2815 120.176 39.4202 119.691 39.5242C119.223 39.6282 118.712 39.6802 118.157 39.6802C117.186 39.6802 116.294 39.4982 115.479 39.1342C114.664 38.7702 113.962 38.2848 113.373 37.6782C112.784 37.0715 112.324 36.3608 111.995 35.5462C111.666 34.7315 111.501 33.8648 111.501 32.9462ZM114.361 32.9462C114.361 33.5702 114.456 34.1508 114.647 34.6882C114.855 35.2082 115.132 35.6588 115.479 36.0402C115.843 36.4042 116.276 36.6988 116.779 36.9242C117.299 37.1322 117.871 37.2362 118.495 37.2362C119.067 37.2362 119.604 37.1408 120.107 36.9502C120.627 36.7422 121.069 36.4562 121.433 36.0922C121.814 35.7282 122.118 35.2862 122.343 34.7662C122.568 34.2288 122.681 33.6222 122.681 32.9462C122.681 32.2702 122.568 31.6722 122.343 31.1522C122.135 30.6148 121.84 30.1642 121.459 29.8002C121.078 29.4188 120.636 29.1328 120.133 28.9422C119.63 28.7342 119.093 28.6302 118.521 28.6302C117.897 28.6302 117.325 28.7428 116.805 28.9682C116.302 29.1762 115.869 29.4708 115.505 29.8522C115.141 30.2335 114.855 30.6928 114.647 31.2302C114.456 31.7502 114.361 32.3222 114.361 32.9462ZM137.96 27.7982C137.96 27.3995 138.081 27.0788 138.324 26.8362C138.566 26.5762 138.922 26.4462 139.39 26.4462C139.858 26.4462 140.213 26.5762 140.456 26.8362C140.698 27.0788 140.82 27.3995 140.82 27.7982V34.0902C140.82 35.0435 140.672 35.8928 140.378 36.6382C140.1 37.3835 139.693 38.0162 139.156 38.5362C138.618 39.0388 137.977 39.4202 137.232 39.6802C136.486 39.9575 135.654 40.0962 134.736 40.0962C133.817 40.0962 132.985 39.9575 132.24 39.6802C131.494 39.4202 130.853 39.0388 130.316 38.5362C129.778 38.0162 129.362 37.3835 129.068 36.6382C128.79 35.8928 128.652 35.0435 128.652 34.0902V27.7982C128.652 27.3995 128.773 27.0788 129.016 26.8362C129.258 26.5762 129.614 26.4462 130.082 26.4462C130.55 26.4462 130.905 26.5762 131.148 26.8362C131.39 27.0788 131.512 27.3995 131.512 27.7982V34.1422C131.512 35.2342 131.78 36.0922 132.318 36.7162C132.872 37.3402 133.678 37.6522 134.736 37.6522C135.793 37.6522 136.59 37.3402 137.128 36.7162C137.682 36.0922 137.96 35.2342 137.96 34.1422V27.7982ZM62.8844 60.8222C62.6417 61.6715 62.0611 61.9748 61.1424 61.7322C60.6917 61.6108 60.3797 61.3942 60.2064 61.0822C60.0331 60.7702 60.0071 60.4235 60.1284 60.0422L64.1324 46.5742C64.4964 45.3782 65.0077 44.4595 65.6664 43.8182C66.3251 43.1768 67.2004 42.8562 68.2924 42.8562C69.3844 42.8562 70.2597 43.1768 70.9184 43.8182C71.5944 44.4595 72.1057 45.3782 72.4524 46.5742L76.4564 60.0422C76.5604 60.4235 76.5257 60.7702 76.3524 61.0822C76.1964 61.3942 75.8931 61.6108 75.4424 61.7322C74.5064 61.9748 73.9257 61.6715 73.7004 60.8222L72.2444 55.9342H64.3144L62.8844 60.8222ZM68.2924 45.6642C67.9457 45.6642 67.6597 45.8028 67.4344 46.0802C67.2091 46.3575 66.9924 46.8602 66.7844 47.5882L65.0424 53.4902H71.5164L69.7484 47.5882C69.5404 46.8602 69.3324 46.3575 69.1244 46.0802C68.9337 45.8028 68.6564 45.6642 68.2924 45.6642ZM77.4267 55.1542C77.4267 54.2182 77.5914 53.3342 77.9207 52.5022C78.2501 51.6528 78.7181 50.9162 79.3247 50.2922C79.9314 49.6508 80.6681 49.1395 81.5347 48.7582C82.4014 48.3768 83.3721 48.1862 84.4467 48.1862C85.5041 48.1862 86.4661 48.3768 87.3327 48.7582C88.1994 49.1222 88.9361 49.6162 89.5427 50.2402C90.1494 50.8642 90.6174 51.5922 90.9467 52.4242C91.2761 53.2388 91.4407 54.0968 91.4407 54.9982V66.4642C91.4407 66.8628 91.3107 67.1835 91.0507 67.4262C90.8081 67.6862 90.4527 67.8162 89.9847 67.8162C89.5167 67.8162 89.1614 67.6862 88.9187 67.4262C88.6934 67.1835 88.5807 66.8628 88.5807 66.4642V59.9382C88.2167 60.5102 87.6621 61.0128 86.9167 61.4462C86.1714 61.8795 85.2267 62.0962 84.0827 62.0962C83.1121 62.0962 82.2194 61.9142 81.4047 61.5502C80.5901 61.1688 79.8881 60.6662 79.2987 60.0422C78.7094 59.4008 78.2501 58.6642 77.9207 57.8322C77.5914 56.9828 77.4267 56.0902 77.4267 55.1542ZM80.2867 55.1542C80.2867 55.7955 80.3821 56.3935 80.5727 56.9482C80.7807 57.4855 81.0581 57.9622 81.4047 58.3782C81.7687 58.7768 82.2021 59.0888 82.7047 59.3142C83.2247 59.5395 83.7967 59.6522 84.4207 59.6522C84.9927 59.6522 85.5301 59.5482 86.0327 59.3402C86.5527 59.1322 86.9947 58.8375 87.3587 58.4562C87.7401 58.0575 88.0434 57.5808 88.2687 57.0262C88.4941 56.4715 88.6067 55.8475 88.6067 55.1542C88.6067 54.4608 88.4941 53.8368 88.2687 53.2822C88.0607 52.7275 87.7661 52.2595 87.3847 51.8782C87.0034 51.4795 86.5614 51.1762 86.0587 50.9682C85.5561 50.7428 85.0187 50.6302 84.4467 50.6302C83.8227 50.6302 83.2507 50.7515 82.7307 50.9942C82.2281 51.2195 81.7947 51.5315 81.4307 51.9302C81.0667 52.3288 80.7807 52.8055 80.5727 53.3602C80.3821 53.9148 80.2867 54.5128 80.2867 55.1542ZM103.86 49.7982C103.86 49.3995 103.982 49.0788 104.224 48.8362C104.467 48.5762 104.822 48.4462 105.29 48.4462C105.758 48.4462 106.114 48.5762 106.356 48.8362C106.599 49.0788 106.72 49.3995 106.72 49.7982V56.0902C106.72 57.0435 106.573 57.8928 106.278 58.6382C106.001 59.3835 105.594 60.0162 105.056 60.5362C104.519 61.0388 103.878 61.4202 103.132 61.6802C102.387 61.9575 101.555 62.0962 100.636 62.0962C99.7175 62.0962 98.8855 61.9575 98.1402 61.6802C97.3949 61.4202 96.7535 61.0388 96.2162 60.5362C95.6789 60.0162 95.2629 59.3835 94.9682 58.6382C94.6909 57.8928 94.5522 57.0435 94.5522 56.0902V49.7982C94.5522 49.3995 94.6735 49.0788 94.9162 48.8362C95.1589 48.5762 95.5142 48.4462 95.9822 48.4462C96.4502 48.4462 96.8055 48.5762 97.0482 48.8362C97.2909 49.0788 97.4122 49.3995 97.4122 49.7982V56.1422C97.4122 57.2342 97.6809 58.0922 98.2182 58.7162C98.7729 59.3402 99.5789 59.6522 100.636 59.6522C101.694 59.6522 102.491 59.3402 103.028 58.7162C103.583 58.0922 103.86 57.2342 103.86 56.1422V49.7982ZM109.317 55.1542C109.317 54.2182 109.482 53.3342 109.811 52.5022C110.141 51.6528 110.609 50.9162 111.215 50.2922C111.822 49.6508 112.559 49.1395 113.425 48.7582C114.292 48.3768 115.263 48.1862 116.337 48.1862C117.395 48.1862 118.357 48.3768 119.223 48.7582C120.09 49.1222 120.827 49.6162 121.433 50.2402C122.04 50.8642 122.508 51.5922 122.837 52.4242C123.167 53.2388 123.331 54.0968 123.331 54.9982V60.4842C123.331 60.8828 123.201 61.2122 122.941 61.4722C122.699 61.7148 122.343 61.8362 121.875 61.8362C121.407 61.8362 121.052 61.7148 120.809 61.4722C120.584 61.2122 120.471 60.8828 120.471 60.4842V59.9382C120.107 60.5102 119.553 61.0128 118.807 61.4462C118.062 61.8795 117.117 62.0962 115.973 62.0962C115.003 62.0962 114.11 61.9142 113.295 61.5502C112.481 61.1688 111.779 60.6662 111.189 60.0422C110.6 59.4008 110.141 58.6642 109.811 57.8322C109.482 56.9828 109.317 56.0902 109.317 55.1542ZM112.177 55.1542C112.177 55.7955 112.273 56.3935 112.463 56.9482C112.671 57.4855 112.949 57.9622 113.295 58.3782C113.659 58.7768 114.093 59.0888 114.595 59.3142C115.115 59.5395 115.687 59.6522 116.311 59.6522C116.883 59.6522 117.421 59.5482 117.923 59.3402C118.443 59.1322 118.885 58.8375 119.249 58.4562C119.631 58.0575 119.934 57.5808 120.159 57.0262C120.385 56.4715 120.497 55.8475 120.497 55.1542C120.497 54.4608 120.385 53.8368 120.159 53.2822C119.951 52.7275 119.657 52.2595 119.275 51.8782C118.894 51.4795 118.452 51.1762 117.949 50.9682C117.447 50.7428 116.909 50.6302 116.337 50.6302C115.713 50.6302 115.141 50.7515 114.621 50.9942C114.119 51.2195 113.685 51.5315 113.321 51.9302C112.957 52.3288 112.671 52.8055 112.463 53.3602C112.273 53.9148 112.177 54.5128 112.177 55.1542ZM129.303 60.4842C129.303 60.8828 129.181 61.2122 128.939 61.4722C128.696 61.7148 128.341 61.8362 127.873 61.8362C127.405 61.8362 127.049 61.7148 126.807 61.4722C126.564 61.2122 126.443 60.8828 126.443 60.4842V54.5562C126.443 53.5855 126.581 52.7102 126.859 51.9302C127.136 51.1502 127.561 50.4828 128.133 49.9282C128.722 49.3735 129.467 48.9488 130.369 48.6542C131.287 48.3422 132.371 48.1862 133.619 48.1862C134.104 48.1862 134.468 48.3075 134.711 48.5502C134.953 48.7755 135.075 49.0875 135.075 49.4862C135.075 49.8502 134.953 50.1622 134.711 50.4222C134.468 50.6648 134.104 50.7862 133.619 50.7862C132.839 50.7862 132.171 50.8815 131.617 51.0722C131.079 51.2628 130.637 51.5315 130.291 51.8782C129.944 52.2075 129.693 52.6062 129.537 53.0742C129.381 53.5248 129.303 54.0188 129.303 54.5562V60.4842ZM137.037 49.6162C137.037 49.2175 137.158 48.8795 137.401 48.6022C137.643 48.3248 137.999 48.1862 138.467 48.1862C138.935 48.1862 139.29 48.3248 139.533 48.6022C139.775 48.8795 139.897 49.2175 139.897 49.6162V60.4062C139.897 60.8048 139.775 61.1428 139.533 61.4202C139.29 61.6975 138.935 61.8362 138.467 61.8362C137.999 61.8362 137.643 61.6975 137.401 61.4202C137.158 61.1428 137.037 60.8048 137.037 60.4062V49.6162ZM136.569 44.2342C136.569 43.6795 136.759 43.2288 137.141 42.8822C137.522 42.5182 137.964 42.3362 138.467 42.3362C138.969 42.3362 139.411 42.5182 139.793 42.8822C140.174 43.2288 140.365 43.6795 140.365 44.2342C140.365 44.7888 140.174 45.2395 139.793 45.5862C139.411 45.9328 138.969 46.1062 138.467 46.1062C137.964 46.1062 137.522 45.9328 137.141 45.5862C136.759 45.2395 136.569 44.7888 136.569 44.2342ZM152.585 49.7982C152.585 49.3995 152.706 49.0788 152.949 48.8362C153.191 48.5762 153.547 48.4462 154.015 48.4462C154.483 48.4462 154.838 48.5762 155.081 48.8362C155.323 49.0788 155.445 49.3995 155.445 49.7982V56.0902C155.445 57.0435 155.297 57.8928 155.003 58.6382C154.725 59.3835 154.318 60.0162 153.781 60.5362C153.243 61.0388 152.602 61.4202 151.857 61.6802C151.111 61.9575 150.279 62.0962 149.361 62.0962C148.442 62.0962 147.61 61.9575 146.865 61.6802C146.119 61.4202 145.478 61.0388 144.941 60.5362C144.403 60.0162 143.987 59.3835 143.693 58.6382C143.415 57.8928 143.277 57.0435 143.277 56.0902V49.7982C143.277 49.3995 143.398 49.0788 143.641 48.8362C143.883 48.5762 144.239 48.4462 144.707 48.4462C145.175 48.4462 145.53 48.5762 145.773 48.8362C146.015 49.0788 146.137 49.3995 146.137 49.7982V56.1422C146.137 57.2342 146.405 58.0922 146.943 58.7162C147.497 59.3402 148.303 59.6522 149.361 59.6522C150.418 59.6522 151.215 59.3402 151.753 58.7162C152.307 58.0922 152.585 57.2342 152.585 56.1422V49.7982ZM168.026 50.4482C168.442 49.8415 169.014 49.3128 169.742 48.8622C170.47 48.4115 171.354 48.1862 172.394 48.1862C173.139 48.1862 173.824 48.3248 174.448 48.6022C175.089 48.8622 175.627 49.2348 176.06 49.7202C176.511 50.1882 176.857 50.7515 177.1 51.4102C177.36 52.0688 177.49 52.7882 177.49 53.5682V60.4842C177.49 60.8828 177.36 61.2122 177.1 61.4722C176.857 61.7148 176.511 61.8362 176.06 61.8362C175.609 61.8362 175.254 61.7148 174.994 61.4722C174.751 61.2122 174.63 60.8828 174.63 60.4842V53.7242C174.63 52.8402 174.405 52.1035 173.954 51.5142C173.503 50.9248 172.853 50.6302 172.004 50.6302C171.155 50.6302 170.513 50.9248 170.08 51.5142C169.664 52.1035 169.456 52.8402 169.456 53.7242V60.4842C169.456 60.8828 169.326 61.2122 169.066 61.4722C168.823 61.7148 168.477 61.8362 168.026 61.8362C167.575 61.8362 167.22 61.7148 166.96 61.4722C166.717 61.2122 166.596 60.8828 166.596 60.4842V53.7242C166.596 52.8402 166.379 52.1035 165.946 51.5142C165.53 50.9248 164.897 50.6302 164.048 50.6302C163.199 50.6302 162.549 50.9248 162.098 51.5142C161.647 52.1035 161.422 52.8402 161.422 53.7242V60.4842C161.422 60.8828 161.292 61.2122 161.032 61.4722C160.789 61.7148 160.443 61.8362 159.992 61.8362C159.541 61.8362 159.186 61.7148 158.926 61.4722C158.683 61.2122 158.562 60.8828 158.562 60.4842V53.5682C158.562 52.7882 158.683 52.0688 158.926 51.4102C159.186 50.7515 159.533 50.1882 159.966 49.7202C160.417 49.2348 160.954 48.8622 161.578 48.6022C162.202 48.3248 162.895 48.1862 163.658 48.1862C164.698 48.1862 165.591 48.4115 166.336 48.8622C167.099 49.3128 167.662 49.8415 168.026 50.4482Z" fill="#2C4093"/>
</svg>
