<svg width="180" height="68" viewBox="0 0 180 68" fill="none" xmlns="http://www.w3.org/2000/svg">
<path d="M47.8439 63.1518C47.6601 58.3166 46.1836 55.6598 45.3506 54.4841C45.0691 54.0865 45.0117 53.5678 45.2013 53.1183C46.0687 51.1012 46.5513 48.8824 46.5513 46.5483C46.4077 42.0301 44.1212 37.5983 39.9217 36.2036C37.6754 35.4544 34.6823 35.3679 32.4015 37.2352C32.1602 37.4311 31.8557 37.5233 31.5513 37.4599C30.184 37.166 26.3061 36.5033 25.611 38.1573C25.1801 39.1831 26.151 40.0476 27.3804 40.7507C28.3571 41.3097 29.035 41.5633 30.1093 42.0819C31.8328 42.7966 33.0449 44.4967 33.0449 46.4849C33.0449 47.4762 32.7405 48.3983 32.2234 49.1648C31.3674 50.4269 29.9254 51.251 28.2939 51.251C28.0411 51.251 27.7998 51.228 27.5585 51.1876C27.1104 51.1185 26.6853 50.9859 26.2946 50.8015C25.7029 50.5594 25.2203 50.2943 24.979 50.1387C19.3547 46.5368 17.591 39.0621 21.0552 33.2817C21.5838 32.3999 22.2042 31.6162 22.8936 30.9188C24.7722 29.0228 27.1851 27.8183 29.7359 27.4091C31.5168 28.9882 33.8492 29.9564 36.4172 29.9564C36.8079 29.9564 37.1871 29.9276 37.5662 29.8872C39.8068 29.6337 41.8232 28.6424 43.3744 27.1613C44.8738 25.732 46.8903 24.8503 49.1193 24.8503C51.222 24.8503 53.135 25.6341 54.6 26.9192C51.7275 19.4157 43.7363 14.9435 35.6761 16.7359C32.9703 17.3352 30.5746 18.5743 28.5984 20.2571C29.1441 15.7504 28.0181 10.8633 24.6171 6.39688C22.2387 3.29633 18.7917 1.16975 14.9656 0.409024C9.09425 -0.75512 3.90657 0.651074 0 3.54415C1.84987 3.44041 3.75145 3.84959 5.48643 4.82932C7.82462 6.15483 9.42172 8.28141 10.1456 10.6673C10.8982 13.1397 12.4263 15.3758 14.6266 16.9722C14.9943 17.243 15.3792 17.4966 15.7871 17.7271C18.4758 19.2486 21.4459 19.5655 24.2494 18.9719C25.025 22.9369 18.8434 30.6307 18.2345 31.524C15.2586 35.852 13.3225 40.9063 13.4604 46.5541C13.4604 55.7232 20.8714 63.1518 30.0059 63.1518C34.125 63.1518 37.8879 61.6419 40.7834 59.1407C41.2889 58.7027 42.0128 58.6335 42.5931 58.9678C43.7076 59.6075 45.6149 60.8869 47.8439 63.1518Z" fill="#C8E6FC"/>
<path d="M61.09 36.4738V23.3698C61.09 21.6018 61.922 20.6918 63.794 20.6918H68.5C74.428 20.6918 77.34 24.6438 77.34 29.9218C77.34 35.1478 74.22 39.1518 68.474 39.1518H63.794C61.922 39.1518 61.09 38.2418 61.09 36.4738ZM64.106 23.2918V36.5518H68.474C72.322 36.5518 74.324 33.8478 74.324 29.9218C74.324 25.9698 72.296 23.2918 68.448 23.2918H64.106ZM79.5592 32.7298C79.5592 29.0118 82.2892 25.7618 86.5792 25.7618C90.8432 25.7618 93.5732 28.9598 93.5732 32.5738V38.0598C93.5732 38.8658 93.0532 39.4118 92.1172 39.4118C91.1812 39.4118 90.7132 38.8658 90.7132 38.0598V37.5138C89.9852 38.6578 88.4772 39.6718 86.2152 39.6718C82.3412 39.6718 79.5592 36.4738 79.5592 32.7298ZM82.4192 32.7298C82.4192 35.3038 84.0572 37.2278 86.5532 37.2278C88.8412 37.2278 90.7392 35.5118 90.7392 32.7298C90.7392 29.9738 88.8672 28.2058 86.5792 28.2058C84.0832 28.2058 82.4192 30.1558 82.4192 32.7298ZM103.367 37.2278C105.031 37.2278 106.019 36.7858 106.877 36.0838C108.125 35.1218 109.659 37.0978 108.333 38.1638C107.189 39.0998 105.447 39.6718 103.367 39.6718C99.0766 39.6718 96.1646 36.7598 96.1646 32.7298C96.1646 28.6998 99.3366 25.7618 102.899 25.7618C106.435 25.7618 109.555 28.2838 109.555 32.2098C109.555 33.2238 109.087 33.8738 107.917 33.8738H99.1546C99.4926 35.8498 101.183 37.2278 103.367 37.2278ZM99.1286 31.5338H106.695C106.695 30.0778 105.239 28.2058 102.899 28.2058C100.949 28.2058 99.4146 29.6618 99.1286 31.5338ZM111.501 32.5218C111.501 28.9078 114.231 25.7618 118.521 25.7618C122.785 25.7618 125.541 28.8298 125.541 32.3658V38.5798C125.541 42.6358 122.967 45.3918 118.573 45.3918C116.259 45.3918 114.283 44.7938 112.723 43.1298C112.125 42.5058 112.047 41.7778 112.541 41.1798C112.983 40.6338 113.893 40.5818 114.413 41.1018C115.739 42.4278 116.961 42.8958 118.547 42.8958C120.913 42.8958 122.681 41.4138 122.681 38.5798V37.5138C122.005 38.3198 120.367 39.2558 118.157 39.2558C114.283 39.2558 111.501 36.1618 111.501 32.5218ZM114.361 32.5218C114.361 35.0178 115.999 36.8118 118.495 36.8118C120.783 36.8118 122.681 35.1998 122.681 32.5218C122.681 29.8438 120.809 28.2058 118.521 28.2058C116.025 28.2058 114.361 30.0258 114.361 32.5218ZM137.959 33.7178V27.3738C137.959 26.5678 138.453 26.0218 139.389 26.0218C140.325 26.0218 140.819 26.5678 140.819 27.3738V33.6658C140.819 37.4878 138.401 39.6718 134.735 39.6718C131.069 39.6718 128.651 37.4878 128.651 33.6658V27.3738C128.651 26.5678 129.145 26.0218 130.081 26.0218C131.017 26.0218 131.511 26.5678 131.511 27.3738V33.7178C131.511 35.9018 132.629 37.2278 134.735 37.2278C136.841 37.2278 137.959 35.9018 137.959 33.7178ZM64.314 55.5098L62.884 60.3978C62.65 61.2038 62.052 61.5418 61.142 61.3078C60.232 61.0738 59.894 60.3718 60.128 59.6178L64.132 46.1498C64.86 43.7578 66.108 42.4318 68.292 42.4318C70.476 42.4318 71.75 43.7578 72.452 46.1498L76.456 59.6178C76.664 60.3718 76.352 61.0738 75.442 61.3078C74.532 61.5418 73.908 61.2038 73.7 60.3978L72.244 55.5098H64.314ZM68.292 45.2398C67.59 45.2398 67.2 45.7078 66.784 47.1638L65.042 53.0658H71.516L69.748 47.1638C69.332 45.7078 69.02 45.2398 68.292 45.2398ZM77.4264 54.7298C77.4264 51.0118 80.1564 47.7618 84.4464 47.7618C88.7104 47.7618 91.4404 50.9598 91.4404 54.5738V66.0398C91.4404 66.8458 90.9204 67.3918 89.9844 67.3918C89.0484 67.3918 88.5804 66.8458 88.5804 66.0398V59.5138C87.8524 60.6578 86.3444 61.6718 84.0824 61.6718C80.2084 61.6718 77.4264 58.4738 77.4264 54.7298ZM80.2864 54.7298C80.2864 57.3038 81.9244 59.2278 84.4204 59.2278C86.7084 59.2278 88.6064 57.5118 88.6064 54.7298C88.6064 51.9738 86.7344 50.2058 84.4464 50.2058C81.9504 50.2058 80.2864 52.1558 80.2864 54.7298ZM103.86 55.7178V49.3738C103.86 48.5678 104.354 48.0218 105.29 48.0218C106.226 48.0218 106.72 48.5678 106.72 49.3738V55.6658C106.72 59.4878 104.302 61.6718 100.636 61.6718C96.9698 61.6718 94.5518 59.4878 94.5518 55.6658V49.3738C94.5518 48.5678 95.0458 48.0218 95.9818 48.0218C96.9178 48.0218 97.4118 48.5678 97.4118 49.3738V55.7178C97.4118 57.9018 98.5298 59.2278 100.636 59.2278C102.742 59.2278 103.86 57.9018 103.86 55.7178ZM109.317 54.7298C109.317 51.0118 112.047 47.7618 116.337 47.7618C120.601 47.7618 123.331 50.9598 123.331 54.5738V60.0598C123.331 60.8658 122.811 61.4118 121.875 61.4118C120.939 61.4118 120.471 60.8658 120.471 60.0598V59.5138C119.743 60.6578 118.235 61.6718 115.973 61.6718C112.099 61.6718 109.317 58.4738 109.317 54.7298ZM112.177 54.7298C112.177 57.3038 113.815 59.2278 116.311 59.2278C118.599 59.2278 120.497 57.5118 120.497 54.7298C120.497 51.9738 118.625 50.2058 116.337 50.2058C113.841 50.2058 112.177 52.1558 112.177 54.7298ZM129.302 54.1318V60.0598C129.302 60.8658 128.808 61.4118 127.872 61.4118C126.936 61.4118 126.442 60.8658 126.442 60.0598V54.1318C126.442 50.2578 128.6 47.7618 133.618 47.7618C134.58 47.7618 135.074 48.2558 135.074 49.0618C135.074 49.7898 134.58 50.3618 133.618 50.3618C130.524 50.3618 129.302 51.9738 129.302 54.1318ZM137.036 59.9818V49.1918C137.036 48.3858 137.53 47.7618 138.466 47.7618C139.402 47.7618 139.896 48.3858 139.896 49.1918V59.9818C139.896 60.7878 139.402 61.4118 138.466 61.4118C137.53 61.4118 137.036 60.7878 137.036 59.9818ZM136.568 43.8098C136.568 42.6918 137.452 41.9118 138.466 41.9118C139.48 41.9118 140.364 42.6918 140.364 43.8098C140.364 44.9278 139.48 45.6818 138.466 45.6818C137.452 45.6818 136.568 44.9278 136.568 43.8098ZM152.584 55.7178V49.3738C152.584 48.5678 153.078 48.0218 154.014 48.0218C154.95 48.0218 155.444 48.5678 155.444 49.3738V55.6658C155.444 59.4878 153.026 61.6718 149.36 61.6718C145.694 61.6718 143.276 59.4878 143.276 55.6658V49.3738C143.276 48.5678 143.77 48.0218 144.706 48.0218C145.642 48.0218 146.136 48.5678 146.136 49.3738V55.7178C146.136 57.9018 147.254 59.2278 149.36 59.2278C151.466 59.2278 152.584 57.9018 152.584 55.7178ZM168.026 50.0238C168.858 48.8018 170.314 47.7618 172.394 47.7618C175.41 47.7618 177.49 50.0238 177.49 53.1438V60.0598C177.49 60.8658 176.97 61.4118 176.06 61.4118C175.15 61.4118 174.63 60.8658 174.63 60.0598V53.2998C174.63 51.5318 173.694 50.2058 172.004 50.2058C170.314 50.2058 169.456 51.5318 169.456 53.2998V60.0598C169.456 60.8658 168.936 61.4118 168.026 61.4118C167.116 61.4118 166.596 60.8658 166.596 60.0598V53.2998C166.596 51.5318 165.738 50.2058 164.048 50.2058C162.358 50.2058 161.422 51.5318 161.422 53.2998V60.0598C161.422 60.8658 160.902 61.4118 159.992 61.4118C159.082 61.4118 158.562 60.8658 158.562 60.0598V53.1438C158.562 50.0238 160.642 47.7618 163.658 47.7618C165.738 47.7618 167.298 48.8018 168.026 50.0238Z" fill="#C8E6FC"/>
</svg>
