<svg width="555" height="493" viewBox="0 0 555 493" fill="none" xmlns="http://www.w3.org/2000/svg">
<path fill-rule="evenodd" clip-rule="evenodd" d="M132.806 9.69765C90.2052 14.1859 84.9877 23.1816 63.3649 29.8699C46.0864 35.2163 34.6519 42.7179 27.3177 59.9103C22.6445 71.0977 23.3887 79.2695 23.592 90.7374C3.02939 99.1513 -5.32898 115.001 5.02135 136.209C7.97701 142.757 19.1451 145.941 24.7933 147.686C32.343 150.017 38.7723 160.013 51.1939 168.509C65.5891 178.356 73.2945 176.314 83.8444 187.674C98.5773 204.746 111.09 223.443 124.311 241.827C132.111 253.3 156.84 268.307 155.424 286.956C153.895 307.072 133.209 317.95 124.94 332.914C116.965 347.336 114.641 364.848 109.522 381.696C101.395 401.993 93.19 414.933 85.0237 431.552C76.8209 446.535 55.3842 464.076 62.0767 486.749C63.495 488.855 67.9955 492.838 72.6006 492.847C76.2847 492.854 82.8999 491.765 86.5697 490.276C91.2498 488.378 94.2354 488.91 95.5976 488.75C96.9598 488.589 103.179 488.462 106.549 487.917C111.97 487.039 116.646 487.645 120.733 487.162C124.586 486.707 128.256 483.969 134.837 481.838C140.158 480.115 142.503 480.472 146.189 480.497C149.341 481.221 152.595 477.414 154.601 474.9C163.14 464.197 164.746 450.166 172.106 436C182.064 416.849 186.582 403.498 195.647 393.624C210.478 383.309 215.096 381.474 229.241 374.002C246.295 359.428 257.406 331.329 279.275 322.052C297.85 314.812 352.583 313.642 389.855 307.15C400.595 305.145 412.959 299.044 416.456 298.483C455.408 328.432 497.476 335.876 549.49 317.762C551.83 316.947 550.773 313.579 550.589 311.474C550.439 310.211 550.352 308.252 550.657 307.01C551.485 303.622 551.346 301.902 550.092 298.329C548.351 293.37 545.387 289.676 544.958 286.043C545.315 282.416 544.529 284.856 544.985 279.62C547.222 274.162 534.092 273.153 529.06 269.53C519.676 262.738 491.109 260.062 488.88 256.78L506.127 239.089C522.752 222.199 535.949 197.813 545.578 175.497C582.382 90.422 502.423 25.6753 442.929 8.06087C419.227 1.0443 394.922 -0.403646 364.821 1.63211C327.745 4.16948 289.506 17.8387 264.023 29.191C256.352 32.611 243.971 43.9536 232.295 41.2257C215.913 37.6357 198.034 26.5151 180.945 19.666C164.434 12.4079 154.732 8.22228 132.806 9.69765Z" fill="#C8E6FC"/>
</svg>
